<mxfile host="app.diagrams.net" modified="2021-12-21T06:19:05.029Z" agent="5.0 (Macintosh; Intel Mac OS X 10_15_7) AppleWebKit/537.36 (KHTML, like Gecko) Chrome/96.0.4664.110 Safari/537.36" etag="M_TTlv4jIiI5KidA_6Oo" version="16.0.0" type="github">
  <diagram id="C5RBs43oDa-KdzZeNtuy" name="Page-1">
    <mxGraphModel dx="1056" dy="588" grid="1" gridSize="10" guides="1" tooltips="1" connect="1" arrows="1" fold="1" page="1" pageScale="1" pageWidth="827" pageHeight="1169" math="0" shadow="0">
      <root>
        <mxCell id="WIyWlLk6GJQsqaUBKTNV-0" />
        <mxCell id="WIyWlLk6GJQsqaUBKTNV-1" parent="WIyWlLk6GJQsqaUBKTNV-0" />
        <mxCell id="2LK_YFwhrAIKgzWSwJJ9-10" style="edgeStyle=orthogonalEdgeStyle;rounded=0;orthogonalLoop=1;jettySize=auto;html=1;entryX=0.5;entryY=0;entryDx=0;entryDy=0;" edge="1" parent="WIyWlLk6GJQsqaUBKTNV-1" source="2LK_YFwhrAIKgzWSwJJ9-0" target="2LK_YFwhrAIKgzWSwJJ9-3">
          <mxGeometry relative="1" as="geometry" />
        </mxCell>
        <mxCell id="2LK_YFwhrAIKgzWSwJJ9-0" value="开始" style="ellipse;whiteSpace=wrap;html=1;aspect=fixed;" vertex="1" parent="WIyWlLk6GJQsqaUBKTNV-1">
          <mxGeometry x="120" y="40" width="80" height="80" as="geometry" />
        </mxCell>
        <mxCell id="2LK_YFwhrAIKgzWSwJJ9-12" style="edgeStyle=orthogonalEdgeStyle;rounded=0;orthogonalLoop=1;jettySize=auto;html=1;exitX=0.5;exitY=1;exitDx=0;exitDy=0;entryX=0.5;entryY=0;entryDx=0;entryDy=0;" edge="1" parent="WIyWlLk6GJQsqaUBKTNV-1" source="2LK_YFwhrAIKgzWSwJJ9-2" target="2LK_YFwhrAIKgzWSwJJ9-4">
          <mxGeometry relative="1" as="geometry" />
        </mxCell>
        <mxCell id="2LK_YFwhrAIKgzWSwJJ9-22" value="通过" style="edgeLabel;html=1;align=center;verticalAlign=middle;resizable=0;points=[];" vertex="1" connectable="0" parent="2LK_YFwhrAIKgzWSwJJ9-12">
          <mxGeometry x="-0.4395" y="2" relative="1" as="geometry">
            <mxPoint x="-2" y="3" as="offset" />
          </mxGeometry>
        </mxCell>
        <mxCell id="2LK_YFwhrAIKgzWSwJJ9-2" value="幂等校验" style="rhombus;whiteSpace=wrap;html=1;" vertex="1" parent="WIyWlLk6GJQsqaUBKTNV-1">
          <mxGeometry x="120" y="350" width="80" height="80" as="geometry" />
        </mxCell>
        <mxCell id="2LK_YFwhrAIKgzWSwJJ9-11" style="edgeStyle=orthogonalEdgeStyle;rounded=0;orthogonalLoop=1;jettySize=auto;html=1;exitX=0.5;exitY=1;exitDx=0;exitDy=0;entryX=0.5;entryY=0;entryDx=0;entryDy=0;" edge="1" parent="WIyWlLk6GJQsqaUBKTNV-1" source="2LK_YFwhrAIKgzWSwJJ9-3" target="2LK_YFwhrAIKgzWSwJJ9-2">
          <mxGeometry relative="1" as="geometry" />
        </mxCell>
        <mxCell id="2LK_YFwhrAIKgzWSwJJ9-3" value="锁定对应的支付单" style="rounded=0;whiteSpace=wrap;html=1;" vertex="1" parent="WIyWlLk6GJQsqaUBKTNV-1">
          <mxGeometry x="100" y="230" width="120" height="60" as="geometry" />
        </mxCell>
        <mxCell id="2LK_YFwhrAIKgzWSwJJ9-13" style="edgeStyle=orthogonalEdgeStyle;rounded=0;orthogonalLoop=1;jettySize=auto;html=1;entryX=0.5;entryY=0;entryDx=0;entryDy=0;" edge="1" parent="WIyWlLk6GJQsqaUBKTNV-1" source="2LK_YFwhrAIKgzWSwJJ9-4" target="2LK_YFwhrAIKgzWSwJJ9-6">
          <mxGeometry relative="1" as="geometry" />
        </mxCell>
        <mxCell id="2LK_YFwhrAIKgzWSwJJ9-4" value="生成结算明细&lt;br&gt;状态:预结算" style="rounded=0;whiteSpace=wrap;html=1;" vertex="1" parent="WIyWlLk6GJQsqaUBKTNV-1">
          <mxGeometry x="100" y="490" width="120" height="60" as="geometry" />
        </mxCell>
        <mxCell id="2LK_YFwhrAIKgzWSwJJ9-18" style="edgeStyle=orthogonalEdgeStyle;rounded=0;orthogonalLoop=1;jettySize=auto;html=1;entryX=0;entryY=0.5;entryDx=0;entryDy=0;exitX=1;exitY=0.5;exitDx=0;exitDy=0;" edge="1" parent="WIyWlLk6GJQsqaUBKTNV-1" source="2LK_YFwhrAIKgzWSwJJ9-24" target="2LK_YFwhrAIKgzWSwJJ9-7">
          <mxGeometry relative="1" as="geometry">
            <Array as="points">
              <mxPoint x="280" y="1000" />
              <mxPoint x="280" y="260" />
            </Array>
          </mxGeometry>
        </mxCell>
        <mxCell id="2LK_YFwhrAIKgzWSwJJ9-25" style="edgeStyle=orthogonalEdgeStyle;rounded=0;orthogonalLoop=1;jettySize=auto;html=1;entryX=0.5;entryY=0;entryDx=0;entryDy=0;" edge="1" parent="WIyWlLk6GJQsqaUBKTNV-1" source="2LK_YFwhrAIKgzWSwJJ9-5" target="2LK_YFwhrAIKgzWSwJJ9-24">
          <mxGeometry relative="1" as="geometry" />
        </mxCell>
        <mxCell id="2LK_YFwhrAIKgzWSwJJ9-5" value="生成冻结充值明细&lt;br&gt;状态:待申请" style="rounded=0;whiteSpace=wrap;html=1;" vertex="1" parent="WIyWlLk6GJQsqaUBKTNV-1">
          <mxGeometry x="100" y="860" width="120" height="60" as="geometry" />
        </mxCell>
        <mxCell id="2LK_YFwhrAIKgzWSwJJ9-14" style="edgeStyle=orthogonalEdgeStyle;rounded=0;orthogonalLoop=1;jettySize=auto;html=1;exitX=0.5;exitY=1;exitDx=0;exitDy=0;entryX=0.5;entryY=0;entryDx=0;entryDy=0;" edge="1" parent="WIyWlLk6GJQsqaUBKTNV-1" source="2LK_YFwhrAIKgzWSwJJ9-6" target="2LK_YFwhrAIKgzWSwJJ9-15">
          <mxGeometry relative="1" as="geometry" />
        </mxCell>
        <mxCell id="2LK_YFwhrAIKgzWSwJJ9-17" value="平安银行" style="edgeLabel;html=1;align=center;verticalAlign=middle;resizable=0;points=[];" vertex="1" connectable="0" parent="2LK_YFwhrAIKgzWSwJJ9-14">
          <mxGeometry x="-0.52" y="1" relative="1" as="geometry">
            <mxPoint as="offset" />
          </mxGeometry>
        </mxCell>
        <mxCell id="2LK_YFwhrAIKgzWSwJJ9-6" value="结算通道判断" style="rhombus;whiteSpace=wrap;html=1;" vertex="1" parent="WIyWlLk6GJQsqaUBKTNV-1">
          <mxGeometry x="115" y="600" width="90" height="80" as="geometry" />
        </mxCell>
        <mxCell id="2LK_YFwhrAIKgzWSwJJ9-7" value="锁定对应的支付单" style="rounded=0;whiteSpace=wrap;html=1;" vertex="1" parent="WIyWlLk6GJQsqaUBKTNV-1">
          <mxGeometry x="330" y="230" width="120" height="60" as="geometry" />
        </mxCell>
        <mxCell id="2LK_YFwhrAIKgzWSwJJ9-8" value="是否已同步&lt;br&gt;平安银行" style="rhombus;whiteSpace=wrap;html=1;" vertex="1" parent="WIyWlLk6GJQsqaUBKTNV-1">
          <mxGeometry x="350" y="480" width="80" height="80" as="geometry" />
        </mxCell>
        <mxCell id="2LK_YFwhrAIKgzWSwJJ9-9" value="获取冻结充值明细" style="rounded=0;whiteSpace=wrap;html=1;" vertex="1" parent="WIyWlLk6GJQsqaUBKTNV-1">
          <mxGeometry x="330" y="360" width="120" height="60" as="geometry" />
        </mxCell>
        <mxCell id="2LK_YFwhrAIKgzWSwJJ9-16" style="edgeStyle=orthogonalEdgeStyle;rounded=0;orthogonalLoop=1;jettySize=auto;html=1;entryX=0.5;entryY=0;entryDx=0;entryDy=0;" edge="1" parent="WIyWlLk6GJQsqaUBKTNV-1" source="2LK_YFwhrAIKgzWSwJJ9-15" target="2LK_YFwhrAIKgzWSwJJ9-5">
          <mxGeometry relative="1" as="geometry" />
        </mxCell>
        <mxCell id="2LK_YFwhrAIKgzWSwJJ9-20" value="否" style="edgeLabel;html=1;align=center;verticalAlign=middle;resizable=0;points=[];" vertex="1" connectable="0" parent="2LK_YFwhrAIKgzWSwJJ9-16">
          <mxGeometry x="-0.683" y="2" relative="1" as="geometry">
            <mxPoint x="-2" y="12" as="offset" />
          </mxGeometry>
        </mxCell>
        <mxCell id="2LK_YFwhrAIKgzWSwJJ9-19" style="edgeStyle=orthogonalEdgeStyle;rounded=0;orthogonalLoop=1;jettySize=auto;html=1;entryX=0;entryY=0.5;entryDx=0;entryDy=0;" edge="1" parent="WIyWlLk6GJQsqaUBKTNV-1" source="2LK_YFwhrAIKgzWSwJJ9-15" target="2LK_YFwhrAIKgzWSwJJ9-7">
          <mxGeometry relative="1" as="geometry">
            <Array as="points">
              <mxPoint x="280" y="770" />
              <mxPoint x="280" y="260" />
            </Array>
          </mxGeometry>
        </mxCell>
        <mxCell id="2LK_YFwhrAIKgzWSwJJ9-21" value="是" style="edgeLabel;html=1;align=center;verticalAlign=middle;resizable=0;points=[];" vertex="1" connectable="0" parent="2LK_YFwhrAIKgzWSwJJ9-19">
          <mxGeometry x="-0.8926" y="2" relative="1" as="geometry">
            <mxPoint as="offset" />
          </mxGeometry>
        </mxCell>
        <mxCell id="2LK_YFwhrAIKgzWSwJJ9-15" value="是否存在&lt;br&gt;充值明细" style="rhombus;whiteSpace=wrap;html=1;" vertex="1" parent="WIyWlLk6GJQsqaUBKTNV-1">
          <mxGeometry x="120" y="730" width="80" height="80" as="geometry" />
        </mxCell>
        <mxCell id="2LK_YFwhrAIKgzWSwJJ9-23" value="事务1:创建结算明细&amp;冻结充值明细" style="swimlane;" vertex="1" parent="WIyWlLk6GJQsqaUBKTNV-1">
          <mxGeometry x="60" y="180" width="200" height="880" as="geometry" />
        </mxCell>
        <mxCell id="2LK_YFwhrAIKgzWSwJJ9-24" value="更新支付单状态&lt;br&gt;预结算成功" style="rounded=0;whiteSpace=wrap;html=1;" vertex="1" parent="2LK_YFwhrAIKgzWSwJJ9-23">
          <mxGeometry x="40" y="790" width="120" height="60" as="geometry" />
        </mxCell>
        <mxCell id="2LK_YFwhrAIKgzWSwJJ9-26" value="事务2:冻结充值到平安银行(异步)" style="swimlane;" vertex="1" parent="WIyWlLk6GJQsqaUBKTNV-1">
          <mxGeometry x="300" y="180" width="200" height="880" as="geometry" />
        </mxCell>
      </root>
    </mxGraphModel>
  </diagram>
</mxfile>
